<?xml version="1.0" encoding="UTF-8" standalone="no"?><!-- Generator: Gravit.io --><svg xmlns="http://www.w3.org/2000/svg" xmlns:xlink="http://www.w3.org/1999/xlink" style="isolation:isolate" viewBox="0 0 10 100" width="10pt" height="100pt"><defs><clipPath id="_clipPath_BT6tYYvBGgDeqy5FcApTpgOQGXFhR2Fi"><rect width="10" height="100"/></clipPath></defs><g clip-path="url(#_clipPath_BT6tYYvBGgDeqy5FcApTpgOQGXFhR2Fi)"><rect width="10" height="100" style="fill:rgb(0,0,0)" fill-opacity="0"/><path d="M 0 0 L 7.3 0 C 8.79 0 10 1.21 10 2.7 L 10 97.3 C 10 98.79 8.79 100 7.3 100 L 0 100 L 0 0 Z" style="stroke:none;fill:#000000;stroke-miterlimit:10;"/><path d=" M 3.167 96.353 C 3.105 96.353 3.046 96.34 2.994 96.31 C 2.863 96.24 2.786 96.088 2.786 95.898 L 2.786 91.454 C 2.786 91.262 2.861 91.112 2.994 91.042 C 3.126 90.972 3.294 90.99 3.454 91.096 L 6.757 93.27 C 6.912 93.372 7 93.522 7 93.678 C 7 93.837 6.912 93.984 6.757 94.086 L 3.454 96.26 C 3.359 96.319 3.26 96.353 3.167 96.353 L 3.167 96.353 L 3.167 96.353 Z " fill="rgb(255,255,255)"/><path d=" M 5 5.929 C 5.563 5.929 6.02 6.386 6.02 6.949 C 6.02 7.512 5.563 7.969 5 7.969 C 4.437 7.969 3.98 7.512 3.98 6.949 C 3.98 6.386 4.437 5.929 5 5.929 L 5 5.929 Z  M 5 8.48 C 5.563 8.48 6.02 8.937 6.02 9.5 C 6.02 10.063 5.563 10.52 5 10.52 C 4.437 10.52 3.98 10.063 3.98 9.5 C 3.98 8.937 4.437 8.48 5 8.48 L 5 8.48 Z  M 5 11.031 C 5.563 11.031 6.02 11.488 6.02 12.051 C 6.02 12.614 5.563 13.071 5 13.071 C 4.437 13.071 3.98 12.614 3.98 12.051 C 3.98 11.488 4.437 11.031 5 11.031 Z " fill-rule="evenodd" fill="rgb(255,255,255)"/><rect x="0" y="0" width="10" height="19" transform="matrix(1,0,0,1,0,0)" fill="none"/></g></svg>