<?xml version="1.0" encoding="UTF-8" standalone="no"?><!-- Generator: Gravit.io --><svg xmlns="http://www.w3.org/2000/svg" xmlns:xlink="http://www.w3.org/1999/xlink" style="isolation:isolate" viewBox="0 0 10 81" width="10pt" height="81pt"><defs><clipPath id="_clipPath_yX1mePdBd72kddEcR31mokfaMyxRQrZw"><rect width="10" height="81"/></clipPath></defs><g clip-path="url(#_clipPath_yX1mePdBd72kddEcR31mokfaMyxRQrZw)"><rect width="10" height="81" style="fill:rgb(0,0,0)" fill-opacity="0"/><path d="M 0 0 L 7.57 0 C 8.911 0 10 1.089 10 2.43 L 10 78.57 C 10 79.911 8.911 81 7.57 81 L 0 81 L 0 0 Z" style="stroke:none;fill:#000000;stroke-miterlimit:10;"/><path d=" M 3.167 43.177 C 3.105 43.177 3.046 43.163 2.994 43.134 C 2.863 43.063 2.786 42.911 2.786 42.721 L 2.786 38.278 C 2.786 38.085 2.861 37.935 2.994 37.865 C 3.126 37.795 3.294 37.813 3.454 37.92 L 6.757 40.094 C 6.912 40.196 7 40.345 7 40.502 C 7 40.66 6.912 40.808 6.757 40.91 L 3.454 43.084 C 3.359 43.143 3.26 43.177 3.167 43.177 L 3.167 43.177 L 3.167 43.177 Z " fill="rgb(255,255,255)"/></g></svg>