<?xml version="1.0" encoding="UTF-8" standalone="no"?><!-- Generator: Gravit.io --><svg xmlns="http://www.w3.org/2000/svg" xmlns:xlink="http://www.w3.org/1999/xlink" style="isolation:isolate" viewBox="0 0 10 19" width="10pt" height="19pt"><defs><clipPath id="_clipPath_dmW8rGtQBb7JmtyTnmffRe5NJ2ORo9jW"><rect width="10" height="19"/></clipPath></defs><g clip-path="url(#_clipPath_dmW8rGtQBb7JmtyTnmffRe5NJ2ORo9jW)"><rect width="10" height="19" style="fill:rgb(0,0,0)" fill-opacity="0"/><path d="M 0 0 L 8.05 0 C 9.126 0 10 0.874 10 1.95 L 10 17.05 C 10 18.126 9.126 19 8.05 19 L 0 19 L 0 0 Z" style="stroke:none;fill:#000000;stroke-miterlimit:10;"/><path d=" M 5 5.929 C 5.563 5.929 6.02 6.386 6.02 6.949 C 6.02 7.512 5.563 7.969 5 7.969 C 4.437 7.969 3.98 7.512 3.98 6.949 C 3.98 6.386 4.437 5.929 5 5.929 L 5 5.929 Z  M 5 8.48 C 5.563 8.48 6.02 8.937 6.02 9.5 C 6.02 10.063 5.563 10.52 5 10.52 C 4.437 10.52 3.98 10.063 3.98 9.5 C 3.98 8.937 4.437 8.48 5 8.48 L 5 8.48 Z  M 5 11.031 C 5.563 11.031 6.02 11.488 6.02 12.051 C 6.02 12.614 5.563 13.071 5 13.071 C 4.437 13.071 3.98 12.614 3.98 12.051 C 3.98 11.488 4.437 11.031 5 11.031 Z " fill-rule="evenodd" fill="rgb(255,255,255)"/></g></svg>